<svg width="48" height="48" viewBox="0 0 48 48" fill="none" xmlns="http://www.w3.org/2000/svg">
<path d="M12.2676 29.1282C11.827 29.8126 11.4707 30.5486 11.2129 31.3126H15.1879V26.1892C14.0254 26.9486 13.0316 27.947 12.2676 29.1282ZM32.8129 26.1892V31.3126H36.7879C36.5301 30.5486 36.1738 29.8126 35.7332 29.1282C34.9775 27.9539 33.9824 26.9524 32.8129 26.1892ZM29.8129 14.9439L24.0004 8.05322L18.1879 14.9439V31.3126H29.8129V14.9439ZM24.0004 21.0001C23.4116 20.9881 22.851 20.7458 22.4388 20.3251C22.0267 19.9045 21.7959 19.339 21.7959 18.7501C21.7959 18.1612 22.0267 17.5958 22.4388 17.1751C22.851 16.7545 23.4116 16.5121 24.0004 16.5001C24.5892 16.5121 25.1498 16.7545 25.5619 17.1751C25.9741 17.5958 26.2049 18.1612 26.2049 18.7501C26.2049 19.339 25.9741 19.9045 25.5619 20.3251C25.1498 20.7458 24.5892 20.9881 24.0004 21.0001Z" fill="#FFF"/>
<path d="M40.5 34.5C40.5 29.2688 37.4344 24.75 33 22.6453V14.8734C33 14.1656 32.7516 13.4813 32.2922 12.9422L25.1484 4.47188C24.8484 4.11563 24.4219 3.9375 24 3.9375C23.5781 3.9375 23.1516 4.11563 22.8516 4.47188L15.7078 12.9422C15.2516 13.4824 15.0009 14.1664 15 14.8734V22.6453C10.5656 24.75 7.5 29.2688 7.5 34.5H14.8359C14.7281 34.8375 14.6719 35.2031 14.6719 35.6156C14.6719 36.6516 15.0281 37.6641 15.675 38.4656C16.203 39.1212 16.9023 39.6177 17.6953 39.9C18.7781 42.4313 21.2391 44.0625 24 44.0625C25.3641 44.0625 26.6859 43.6594 27.8156 42.9C28.9219 42.1594 29.7797 41.1234 30.3 39.9C31.0927 39.6194 31.792 39.1245 32.3203 38.4703C32.9681 37.6615 33.3218 36.6566 33.3234 35.6203C33.3234 35.2266 33.2719 34.8516 33.1781 34.5047L40.5 34.5ZM15.1875 31.3125H11.2125C11.4703 30.5484 11.8266 29.8125 12.2672 29.1281C13.0313 27.9469 14.025 26.9484 15.1875 26.1891V31.3125ZM18.1875 14.9438L24 8.05313L29.8125 14.9438V31.3125H18.1875V14.9438ZM29.4422 36.7594C29.1984 36.9 28.9172 36.9562 28.6406 36.9188L27.7266 36.8063L27.5953 37.7156C27.3422 39.4922 25.7953 40.8328 24 40.8328C22.2047 40.8328 20.6578 39.4922 20.4047 37.7156L20.2734 36.8016L19.3594 36.9188C19.0815 36.9519 18.8003 36.8943 18.5578 36.7547C18.15 36.5203 17.8969 36.0844 17.8969 35.6109C17.8969 35.1141 18.1734 34.7016 18.5813 34.4953H29.4234C29.8359 34.7063 30.1078 35.1188 30.1078 35.6109C30.1031 36.0891 29.85 36.5297 29.4422 36.7594ZM32.8125 31.3125V26.1891C33.982 26.9523 34.9771 27.9538 35.7328 29.1281C36.1734 29.8125 36.5297 30.5484 36.7875 31.3125H32.8125Z" fill="#FFF"/>
<path d="M21.75 18.75C21.75 19.3467 21.9871 19.919 22.409 20.341C22.831 20.7629 23.4033 21 24 21C24.5967 21 25.169 20.7629 25.591 20.341C26.0129 19.919 26.25 19.3467 26.25 18.75C26.25 18.1533 26.0129 17.581 25.591 17.159C25.169 16.7371 24.5967 16.5 24 16.5C23.4033 16.5 22.831 16.7371 22.409 17.159C21.9871 17.581 21.75 18.1533 21.75 18.75Z" fill="#FFF"/>
</svg>
